<svg width="512" height="512" viewBox="0 0 512 512" fill="none" xmlns="http://www.w3.org/2000/svg">
<path d="M397.246 136.211L334.648 105.897C327.402 102.388 318.742 103.868 313.055 109.588L108.13 294.141C102.618 299.196 102.624 307.924 108.144 312.97L124.883 328.275C129.395 332.401 136.19 332.705 141.049 328.998L387.827 144.076C396.105 137.759 407.997 143.698 407.997 154.15V153.418C407.997 146.082 403.818 139.394 397.246 136.211Z" fill="#0072B0"/>
<path opacity="0.1" d="M324.683 104.082C320.388 104.485 316.261 106.367 313.062 109.584L108.134 294.13C104.668 297.308 103.443 301.932 104.349 306.185C104.884 303.729 106.129 301.397 108.134 299.558L313.062 115.013C317.327 110.723 323.25 108.81 329.009 109.606C330.928 109.871 332.838 110.446 334.649 111.323L397.247 141.646C397.391 141.716 397.52 141.807 397.661 141.879C403.239 142.888 407.999 147.549 407.999 154.157V153.415C407.999 146.078 403.82 139.4 397.247 136.218L334.649 105.895C332.838 105.018 330.928 104.443 329.009 104.177C327.569 103.978 326.114 103.947 324.683 104.082Z" fill="white"/>
<path d="M397.246 375.799L334.648 406.113C327.402 409.621 318.742 408.141 313.055 402.423L108.13 206.675C102.618 201.62 102.624 192.892 108.144 187.846L124.883 172.541C129.395 168.415 136.19 168.111 141.049 171.818L387.827 367.934C396.105 374.251 407.997 368.313 407.997 357.86V358.592C407.997 365.928 403.818 372.616 397.246 375.799Z" fill="#008EDA"/>
<path opacity="0.1" d="M132.838 169.234C129.968 169.362 127.142 170.479 124.886 172.542L108.134 187.852C104.66 191.028 103.442 195.642 104.349 199.896C104.885 197.445 106.127 195.115 108.134 193.28L124.886 177.97C127.142 175.907 129.968 174.791 132.838 174.662C135.708 174.534 138.615 175.396 141.044 177.249L387.832 373.373C390.774 375.617 394.164 376.254 397.322 375.748C403.849 372.549 407.998 365.9 407.998 358.593V357.851C407.998 368.303 396.111 374.261 387.832 367.944L141.044 171.821C138.615 169.968 135.708 169.106 132.838 169.234Z" fill="white"/>
<path d="M334.653 406.118C327.405 409.624 318.745 408.142 313.058 402.422C320.065 409.47 332.047 404.478 332.047 394.511V117.498C332.047 107.531 320.065 102.54 313.058 109.588C318.745 103.868 327.405 102.386 334.653 105.891L397.241 136.164C403.818 139.345 408 146.035 408 153.375V358.636C408 365.975 403.818 372.666 397.241 375.847L334.653 406.118Z" fill="#1EACF8"/>
<path opacity="0.2" d="M325.585 104.061C322.182 104.279 318.877 105.49 315.969 107.464C320.296 105.262 325.334 106.39 328.575 109.595C328.721 109.611 328.865 109.586 329.01 109.606C330.93 109.87 332.839 110.447 334.651 111.323L397.249 141.583C403.826 144.764 408 151.461 408 158.801V153.372C408 146.033 403.826 139.335 397.249 136.154L334.651 105.895C332.839 105.018 330.93 104.442 329.01 104.177C327.863 104.019 326.72 103.988 325.585 104.061ZM315.969 107.464C314.942 107.987 313.963 108.68 313.064 109.584C313.932 108.711 314.977 108.137 315.969 107.464ZM332.043 394.514C332.043 403.201 322.946 408.094 315.969 404.544C319.882 407.2 324.516 408.146 329.106 407.47C330.873 405.554 332.043 403.002 332.043 399.942V394.514ZM315.969 404.544C314.977 403.87 313.932 403.297 313.064 402.423C313.963 403.327 314.942 404.021 315.969 404.544Z" fill="white"/>
</svg>
